<svg width="72" height="54" viewBox="0 0 72 54" fill="none" xmlns="http://www.w3.org/2000/svg">
<path fill-rule="evenodd" clip-rule="evenodd" d="M36.8097 12.2328C34.7556 13.3834 33.055 14.3321 33.0306 14.341C33.0062 14.35 35.3558 18.3727 38.252 23.2805L43.5176 32.2038H48.5778H53.638L53.5156 31.9916C53.2317 31.4994 40.6565 10.3015 40.6031 10.225C40.551 10.1504 40.1226 10.3772 36.8097 12.2328ZM28.1347 20.0023C26.0652 21.1657 24.3783 22.1415 24.3859 22.1708C24.3936 22.2002 25.7354 24.4752 27.3678 27.2265L30.3357 32.2288L30.3359 33.2648L30.3361 34.3009H31.4111H32.4862V33.2526V32.2044L36.4291 32.1916L40.3721 32.1788L36.1428 25.0387C33.8168 21.1116 31.91 17.896 31.9056 17.8929C31.9011 17.8897 30.2042 18.839 28.1347 20.0023ZM19.2814 27.5607C17.2418 28.7132 15.5557 29.6732 15.5346 29.6941C15.5134 29.7151 15.8221 30.2883 16.2205 30.968L16.9449 32.2038H21.9822C25.991 32.2038 27.0144 32.1911 26.9948 32.1414C26.9343 31.9878 23.0691 25.489 23.0317 25.4779C23.0086 25.4711 21.321 26.4083 19.2814 27.5607ZM27.1108 33.9776V35.7515L26.7397 35.5535C25.4317 34.8557 23.8617 34.8368 22.4778 35.5022C21.5743 35.9367 20.9221 36.5647 20.4842 37.4216C20.1157 38.143 20.0219 38.5421 20.0266 39.3689C20.0314 40.204 20.1305 40.6318 20.4779 41.3162C21.2404 42.8187 22.8267 43.7871 24.5255 43.7871C25.258 43.7871 25.9743 43.6112 26.6872 43.2564L27.1108 43.0456V43.3168V43.5881H28.1859H29.261V37.8959V32.2038H28.1859H27.1108V33.9776ZM40.4213 33.9701V35.7364L40.0501 35.5434C38.4697 34.7214 36.5147 34.8732 35.0938 35.9283C34.2584 36.5487 33.6471 37.4907 33.4291 38.4939C33.3447 38.8819 33.3352 39.7077 33.4103 40.1212C33.8377 42.4745 36.0616 44.0585 38.4939 43.7419C39.0081 43.6749 39.8137 43.4113 40.1768 43.1912L40.4213 43.043V43.3155V43.5881H41.4963H42.5714V37.8959V32.2038H41.4963H40.4213V33.9701ZM13.9206 35.0493C12.1935 35.2872 10.7496 36.4584 10.2266 38.0457C9.55742 40.0767 10.5241 42.3302 12.4774 43.2925C13.8054 43.9468 15.2824 43.948 16.6289 43.2958L17.128 43.054V43.3211V43.5881H18.1775H19.227V39.3439V35.0998H18.1775H17.128V35.4203V35.7408L16.642 35.4994C16.3501 35.3544 15.9761 35.2168 15.7054 35.1549C15.182 35.035 14.3721 34.9871 13.9206 35.0493ZM47.1642 35.051C46.045 35.2235 44.93 35.8427 44.2655 36.6605C43.9221 37.0832 43.6305 37.6305 43.4609 38.1706C43.334 38.5747 43.32 38.6927 43.3217 39.3439C43.3238 40.1817 43.416 40.6042 43.7414 41.2663C44.3313 42.4667 45.4006 43.3167 46.7693 43.6732C47.2407 43.7959 48.4042 43.7934 48.8855 43.6684C49.328 43.5536 49.7577 43.3837 50.0919 43.1915L50.3529 43.0414V43.3148V43.5881H51.428H52.503V39.3439V35.0998H51.428H50.3529V35.4304C50.3529 35.6889 50.3389 35.75 50.2889 35.7101C50.1085 35.5663 49.3541 35.2479 48.9754 35.1556C48.4809 35.0351 47.5981 34.9841 47.1642 35.051ZM56.6241 35.0327C55.0663 35.2131 54.0138 35.9197 53.6719 37.0145C53.5836 37.2971 53.5692 37.4462 53.5887 37.8745C53.6104 38.349 53.6285 38.4245 53.8044 38.7716C54.2713 39.6929 54.9494 40.0221 57.0901 40.3667C58.1388 40.5356 58.4927 40.6469 58.6952 40.8719C59.0176 41.23 58.822 41.7561 58.2623 42.0367C58.0312 42.1526 57.9494 42.165 57.4176 42.165C56.9572 42.165 56.7694 42.1435 56.5556 42.0662C56.0577 41.8862 55.7223 41.5099 55.6463 41.0462L55.6128 40.8419H54.493H53.3733V41.0061C53.3733 41.2719 53.5165 41.7316 53.7126 42.0956C54.33 43.2416 55.8222 43.8675 57.7032 43.7694C59.8103 43.6596 61.0452 42.7337 61.188 41.1569C61.3078 39.8333 60.4129 38.8689 58.7401 38.519C58.421 38.4523 57.8374 38.3419 57.4432 38.2738C56.5483 38.1192 56.2363 38.0219 56.0068 37.8257C55.779 37.631 55.7289 37.3908 55.8598 37.1217C55.9305 36.9764 56.0163 36.9038 56.2365 36.8031C56.4999 36.6826 56.5746 36.6726 57.2129 36.6726C57.8741 36.6726 57.9143 36.6786 58.1427 36.8095C58.4278 36.973 58.5911 37.2117 58.6384 37.5341L58.6731 37.7711L59.7604 37.7846C61.0023 37.8 60.901 37.8486 60.7688 37.3014C60.6107 36.6473 60.074 35.9347 59.4699 35.5768C58.762 35.1574 57.5493 34.9255 56.6241 35.0327ZM30.3361 39.3439V43.5881H31.4111H32.4862V39.3439V35.0998H31.4111H30.3361V39.3439ZM15.2373 37.0277C16.2232 37.313 16.9307 38.0905 17.0849 39.0581C17.2033 39.8006 16.9374 40.5231 16.34 41.0826C15.1744 42.1743 13.3486 41.9615 12.4663 40.6311C12.1958 40.2233 12.0935 39.8115 12.1194 39.2345C12.1379 38.8223 12.1628 38.7203 12.3275 38.382C12.8579 37.2927 14.1212 36.7047 15.2373 37.0277ZM25.2201 37.0269C25.6809 37.1589 26.0704 37.3916 26.3922 37.7271C27.3535 38.7294 27.3243 40.1447 26.3228 41.0826C25.3487 41.9949 23.8813 42.0187 22.8936 41.1384C22.4208 40.7169 22.175 40.2602 22.0938 39.6521C21.9408 38.5068 22.7658 37.3348 23.9422 37.0263C24.3126 36.9291 24.8798 36.9294 25.2201 37.0269ZM38.8401 37.118C39.791 37.4944 40.4213 38.4016 40.4213 39.3939C40.4213 40.5627 39.5489 41.5458 38.3311 41.7495C37.5331 41.8829 36.7612 41.6334 36.1766 41.0529C35.6289 40.5091 35.4295 39.999 35.4641 39.2297C35.4822 38.8249 35.5079 38.7191 35.6671 38.3935C35.9847 37.7443 36.4968 37.2965 37.1949 37.0577C37.6604 36.8984 38.3492 36.9237 38.8401 37.118ZM48.5134 37.0277C48.9693 37.1596 49.2826 37.3418 49.6096 37.6652C50.4098 38.4564 50.5771 39.518 50.059 40.5159C49.8677 40.8844 49.3515 41.3627 48.945 41.5482C47.2892 42.304 45.3835 41.1151 45.3877 39.329C45.39 38.3104 46.214 37.304 47.2812 37.0161C47.6081 36.928 48.1875 36.9334 48.5134 37.0277Z" fill="#2D2D2D"/>
</svg>
