<svg width="51" height="56" viewBox="0 0 51 56" fill="none" xmlns="http://www.w3.org/2000/svg">
<path fill-rule="evenodd" clip-rule="evenodd" d="M32.0674 10.0183C30.5093 10.1648 28.6801 11.045 27.3967 12.2659C26.0237 13.5719 25.0959 15.3875 24.9332 17.0865C24.9082 17.3474 24.9197 17.9683 24.9527 18.1417L24.975 18.2589L25.1297 18.2803C25.3553 18.3116 25.9107 18.2928 26.196 18.2443C27.2846 18.0591 28.4183 17.5366 29.4316 16.7529C29.738 16.5159 30.3045 15.9567 30.5834 15.6159C30.9893 15.1199 31.334 14.5898 31.6122 14.0336C32.0175 13.2235 32.2576 12.4572 32.3889 11.5547C32.4269 11.2938 32.4443 10.4811 32.4165 10.2712C32.3781 9.98146 32.3854 9.99839 32.3002 10.0011C32.2592 10.0024 32.1544 10.0102 32.0674 10.0183ZM31.3694 18.7136C30.9499 18.7377 30.3809 18.8272 29.8823 18.9474C29.2258 19.1056 28.7333 19.2689 27.5749 19.7122C26.6352 20.0719 26.3437 20.1721 25.9656 20.2655C25.486 20.3839 25.0653 20.3809 24.5466 20.2555C24.1794 20.1667 23.911 20.0736 22.9458 19.7004C22.0171 19.3412 21.6784 19.2216 21.2389 19.0976C20.1686 18.7957 19.3146 18.7285 18.2376 18.8615C17.0763 19.005 15.9527 19.3804 14.9389 19.9636C12.9678 21.0975 11.4952 22.9288 10.7024 25.2323C10.1168 26.9337 9.91175 28.8623 10.0912 30.9818C10.2555 32.9225 10.7419 34.9825 11.4964 36.9331C11.9808 38.1851 12.6358 39.504 13.2863 40.5372C13.8811 41.4818 15.0798 43.0677 15.8246 43.8952C17.2099 45.4345 18.4947 46.0901 19.9303 45.9901C20.6862 45.9375 21.1654 45.8061 22.329 45.3326C23.0796 45.0271 23.3931 44.9129 23.7813 44.8034C24.9552 44.4723 26.2816 44.4432 27.4307 44.7233C27.9117 44.8405 28.1885 44.9382 29.008 45.2796C30.0245 45.7031 30.4139 45.8228 31.0539 45.9085C31.3381 45.9466 31.9475 45.9614 32.1896 45.9361C33.3082 45.8192 34.329 45.2775 35.3445 44.2619C35.9643 43.6421 36.5912 42.8629 37.4927 41.5921C38.4865 40.1911 39.3715 38.4808 39.9217 36.8979C40.0889 36.4169 40.09 36.4123 40.0364 36.3961C39.8549 36.3414 39.1606 35.9697 38.796 35.7322C36.7128 34.3749 35.4551 32.4182 35.1832 30.1116C34.9571 28.193 35.391 26.3683 36.4436 24.8109C37.0537 23.9081 37.9354 23.0472 38.8816 22.4304C39.0031 22.3512 39.1025 22.2779 39.1025 22.2675C39.1025 22.2377 38.855 21.9147 38.6402 21.6641C37.1211 19.8918 34.9743 18.8734 32.4329 18.7196C32.1593 18.703 31.6074 18.6999 31.3694 18.7136Z" fill="#2D2D2D"/>
</svg>
