<svg width="114" height="44" viewBox="0 0 114 44" fill="none" xmlns="http://www.w3.org/2000/svg">
<path fill-rule="evenodd" clip-rule="evenodd" d="M12.6115 10.3896C11.3859 10.5593 10.3877 11.4625 10.1213 12.6429C10.067 12.8835 10.0623 13.761 10.0717 22.0868L10.0821 31.2655L10.1666 31.5311C10.4848 32.5306 11.2103 33.2275 12.2581 33.5402L12.5371 33.6235L21.7061 33.6341C27.7801 33.6411 30.9964 33.6321 31.2342 33.6075C32.4257 33.4842 33.37 32.7525 33.7651 31.6465L33.8881 31.3018V22.0324C33.8881 11.5748 33.9191 12.6245 33.5912 11.9648C33.2209 11.2199 32.5428 10.6792 31.6749 10.4368C31.4423 10.3718 31.082 10.3691 22.1339 10.364C17.0193 10.3611 12.7342 10.3726 12.6115 10.3896ZM22.3857 13.5506C22.4704 13.5963 22.5907 13.7045 22.653 13.791L22.7662 13.9483L22.7765 19.7953C22.7879 26.3306 22.8081 25.8323 22.5218 26.0714C22.1824 26.3548 21.7325 26.3404 21.4202 26.0362C21.3267 25.9451 21.2484 25.8266 21.2244 25.7397C21.1965 25.6386 21.1874 23.8381 21.1942 19.7749L21.204 13.9549L21.3062 13.8042C21.5451 13.4522 22.0034 13.3445 22.3857 13.5506ZM18.2881 13.8891C18.4886 13.9581 18.644 14.0965 18.7342 14.2867C18.8003 14.4259 18.8032 14.6526 18.8039 19.8117L18.8048 25.1916L18.7272 25.3399C18.633 25.5199 18.4938 25.6524 18.3253 25.7222C18.1745 25.7846 17.8623 25.7902 17.7074 25.7333C17.5523 25.6761 17.358 25.4881 17.276 25.3157C17.2097 25.1764 17.2069 24.9553 17.2069 19.8012C17.2069 14.6514 17.2098 14.4259 17.2758 14.2867C17.4522 13.9152 17.878 13.7479 18.2881 13.8891ZM26.2483 13.8891C26.4488 13.9581 26.6041 14.0965 26.6944 14.2867C26.7605 14.4259 26.7633 14.6526 26.7641 19.8117L26.7649 25.1916L26.6874 25.3399C26.5932 25.5199 26.4539 25.6524 26.2855 25.7222C26.1347 25.7846 25.8224 25.7902 25.6676 25.7333C25.5124 25.6761 25.3181 25.4881 25.2361 25.3157C25.1698 25.1764 25.1671 24.9553 25.1671 19.8012C25.1671 14.6514 25.1699 14.4259 25.236 14.2867C25.4123 13.9152 25.8382 13.7479 26.2483 13.8891ZM14.3601 15.4609C14.5464 15.5435 14.7343 15.7487 14.7876 15.9278C14.8161 16.0237 14.8249 17.1625 14.8171 19.7494L14.8061 23.4345L14.7046 23.584C14.4673 23.9338 13.9735 24.0428 13.6091 23.8258C13.4755 23.7463 13.4037 23.6689 13.3275 23.5222L13.2252 23.3254V19.6666C13.2252 15.6627 13.2141 15.8696 13.4411 15.6336C13.6621 15.4036 14.0614 15.3286 14.3601 15.4609ZM30.2804 15.4609C30.4667 15.5435 30.6546 15.7487 30.7079 15.9278C30.7364 16.0237 30.7452 17.1625 30.7374 19.7494L30.7264 23.4345L30.6249 23.584C30.3876 23.9338 29.8939 24.0428 29.5294 23.8258C29.3959 23.7463 29.324 23.6689 29.2478 23.5222L29.1455 23.3254V19.6666C29.1455 15.6627 29.1344 15.8696 29.3614 15.6336C29.5824 15.4036 29.9818 15.3286 30.2804 15.4609ZM80.2728 17.7753C79.0593 17.9617 78.0308 18.808 77.6563 19.9282C77.4369 20.5846 77.35 21.5724 77.4197 22.619C77.4697 23.37 77.5506 23.8016 77.7225 24.2349C78.0891 25.159 78.9407 25.9006 79.9194 26.148C80.2538 26.2325 81.0452 26.2637 81.3793 26.2054C82.1032 26.0793 82.6961 25.7799 83.2133 25.2794C83.5438 24.9596 83.7743 24.616 83.8394 24.3463C83.8736 24.2044 83.799 23.9218 83.6907 23.7834C83.5395 23.5899 83.3368 23.5099 83.04 23.5262C82.7158 23.5441 82.5602 23.6572 82.3706 24.0124C82.0792 24.5586 81.7109 24.8173 81.1027 24.9031C80.6979 24.9602 80.419 24.9161 80.0444 24.7359C79.4239 24.4375 79.1039 23.9211 78.9898 23.0338C78.9331 22.5924 78.9432 21.2414 79.0064 20.8331C79.1345 20.0038 79.4382 19.5582 80.0922 19.2397C80.744 18.9222 81.6132 19.0594 82.0753 19.5525C82.1807 19.6649 82.3096 19.8404 82.3619 19.9423C82.4753 20.1634 82.5769 20.2779 82.7278 20.3546C83.172 20.5804 83.6765 20.3879 83.8095 19.9418C83.8619 19.7658 83.862 19.7281 83.8103 19.5546C83.651 19.02 83.0565 18.4152 82.3641 18.083C81.8631 17.8426 81.5848 17.7812 80.9423 17.7688C80.6355 17.7629 80.3342 17.7658 80.2728 17.7753ZM88.3446 17.8037C87.9251 17.8847 87.5029 18.0456 87.1748 18.2496C86.3416 18.7675 85.8587 19.5311 85.6583 20.6481C85.576 21.1065 85.5663 22.7931 85.643 23.284C85.8505 24.6109 86.5367 25.5223 87.6769 25.9853C88.1489 26.177 88.5984 26.2504 89.1815 26.2312C90.189 26.1979 90.9119 25.9024 91.5627 25.2577C92.3271 24.5006 92.6106 23.4924 92.5514 21.7422C92.5119 20.5723 92.3741 19.9338 92.0367 19.356C91.6223 18.6463 90.8843 18.0936 90.037 17.8583C89.6751 17.7578 88.7387 17.7275 88.3446 17.8037ZM46.2375 17.9458C46.0128 18.0483 45.842 18.2129 45.7276 18.4371L45.6424 18.604L45.6322 21.9587C45.6253 24.2129 45.6348 25.3741 45.6612 25.4982C45.7969 26.1354 46.639 26.3073 47.0182 25.7751L47.1303 25.6179L47.1403 23.0451C47.1458 21.6301 47.1626 20.4728 47.1775 20.4734C47.1924 20.4739 47.9642 21.6575 48.8925 23.1035C49.9758 24.7911 50.6314 25.7777 50.7229 25.8583C50.9068 26.0204 51.2169 26.1112 51.501 26.086C51.8758 26.0529 52.1794 25.8408 52.3431 25.4978L52.4301 25.3157L52.4305 21.877C52.4308 18.8549 52.4239 18.4221 52.3733 18.304C52.138 17.7548 51.3585 17.697 51.036 18.2048L50.9244 18.3805L50.9058 20.8916L50.8872 23.4026L49.2319 20.8407C48.3215 19.4317 47.5086 18.2117 47.4254 18.1296C47.1478 17.856 46.6152 17.7735 46.2375 17.9458ZM61.9704 17.9285C61.767 18.0185 61.6333 18.1837 61.5846 18.4052C61.5357 18.6276 61.5302 25.3015 61.5787 25.5464C61.6133 25.7213 61.7004 25.8531 61.856 25.9665C61.957 26.04 62 26.0415 64.4575 26.0514C66.6398 26.0603 66.9755 26.0545 67.108 26.0054C67.402 25.8967 67.5961 25.5939 67.5528 25.312C67.5105 25.037 67.3012 24.8137 67.0278 24.7518C66.9475 24.7337 66.0238 24.7184 64.975 24.7179L63.0681 24.7171L63.078 23.5833L63.0878 22.4496L64.836 22.4315C66.5567 22.4136 66.5864 22.4121 66.7159 22.3335C67.0582 22.1258 67.1206 21.6001 66.8345 21.3329C66.6133 21.1262 66.6054 21.1254 64.7628 21.1254H63.0692V20.164V19.2026L65.0313 19.2018C66.8594 19.2011 67.0036 19.1964 67.1423 19.134C67.3223 19.053 67.4357 18.9381 67.5124 18.7588C67.5801 18.601 67.5829 18.5417 67.5312 18.3602C67.4798 18.1798 67.3272 18.0097 67.1438 17.9285C67.0028 17.866 66.8414 17.8619 64.5571 17.8619C62.2727 17.8619 62.1113 17.866 61.9704 17.9285ZM95.3518 17.9082C94.9642 18.0148 94.624 18.3804 94.5385 18.7823C94.5115 18.9091 94.502 20.0304 94.509 22.2694C94.5193 25.5647 94.5194 25.5699 94.599 25.7148C94.6969 25.8929 94.779 25.9676 94.9565 26.0399C95.3333 26.1935 95.7631 26.0191 95.9365 25.6422C95.9549 25.6023 95.9783 24.354 95.9885 22.8683L96.0071 20.1669L96.9712 22.7594C97.5015 24.1853 97.9728 25.4254 98.0186 25.5152C98.2281 25.9262 98.6888 26.0991 99.0948 25.9192C99.3993 25.7843 99.397 25.7893 100.467 22.9573C101.018 21.5008 101.482 20.2936 101.499 20.2747C101.517 20.2557 101.531 21.4382 101.531 22.9025C101.531 25.5414 101.532 25.5663 101.61 25.7238C101.72 25.9463 101.914 26.0631 102.209 26.0848C102.406 26.0993 102.469 26.0883 102.61 26.0144C102.702 25.9663 102.827 25.8573 102.889 25.7724L103 25.6179L103.011 22.2742C103.021 19.3006 103.016 18.9064 102.963 18.7128C102.725 17.8432 101.636 17.5782 101.019 18.24C100.848 18.4235 100.815 18.5002 99.8603 21.0015C99.3199 22.4165 98.8594 23.6105 98.8369 23.6547C98.8017 23.7241 98.6716 23.4053 97.889 21.3328C97.3902 20.0116 96.9308 18.8021 96.8683 18.6451C96.6684 18.1432 96.3274 17.8961 95.8026 17.8731C95.6454 17.8662 95.4486 17.8816 95.3518 17.9082ZM42.1264 17.9782C42.0296 18.0259 41.9143 18.1251 41.8488 18.2171L41.7367 18.3744V21.9902V25.6059L41.8483 25.7665C42.1122 26.1463 42.6531 26.2023 42.9954 25.8852C43.2401 25.6585 43.2234 25.9198 43.2362 22.1231C43.2447 19.6253 43.2361 18.6235 43.2051 18.4838C43.1001 18.01 42.5677 17.7605 42.1264 17.9782ZM54.2625 17.9274C54.1226 17.9667 53.9144 18.1518 53.8556 18.289C53.7157 18.6155 53.8507 19.018 54.1528 19.1755C54.302 19.2532 54.3559 19.2576 55.3043 19.2687L56.2993 19.2804V22.4581V25.6358L56.3939 25.7933C56.5245 26.0105 56.7288 26.1109 57.0433 26.1121C57.3316 26.1132 57.5334 26.0186 57.6763 25.8153L57.7686 25.6838L57.7785 22.4821L57.7884 19.2803L58.8014 19.2687C59.9135 19.2559 59.9462 19.2499 60.1416 19.0234C60.4348 18.6836 60.3321 18.1608 59.9353 17.9735C59.7736 17.8971 59.7518 17.8966 57.0594 17.9002C55.5673 17.9022 54.3087 17.9144 54.2625 17.9274ZM69.8412 17.9765C69.7503 18.0223 69.6248 18.1225 69.5622 18.1992L69.4485 18.3386L69.4387 21.9636C69.4291 25.4751 69.4311 25.5929 69.5001 25.7243C69.596 25.9066 69.7158 26.0095 69.9099 26.0763C70.1949 26.1744 70.4631 26.128 70.6789 25.9432C70.9388 25.7206 70.9343 25.7473 70.955 24.2999L70.9736 22.9938H71.9168H72.86L73.5066 24.4087C74.196 25.9172 74.2273 25.9679 74.5222 26.054C75.0396 26.2053 75.493 25.8888 75.493 25.3766C75.493 25.2126 75.4217 25.0321 74.9396 23.9751L74.3863 22.7617L74.6995 22.5903C75.2599 22.2835 75.6654 21.7625 75.8288 21.1396C75.9181 20.799 75.9261 20.209 75.8464 19.8375C75.7034 19.1709 75.1905 18.5278 74.5631 18.2284C73.9254 17.9241 73.8935 17.9204 71.8291 17.906L70.0064 17.8933L69.8412 17.9765ZM89.5349 19.1432C90.0524 19.2784 90.5276 19.6472 90.7333 20.0733C90.9716 20.5668 91.0638 21.2677 91.0295 22.3226C91.0037 23.115 90.9251 23.5341 90.7271 23.9355C90.188 25.0287 88.698 25.2648 87.7866 24.4015C87.504 24.1338 87.2985 23.6895 87.2109 23.1571C87.1444 22.7524 87.1218 21.7228 87.1692 21.2524C87.2262 20.6857 87.2944 20.4082 87.4581 20.0762C87.6796 19.6272 88.1062 19.2866 88.6235 19.1458C88.8481 19.0847 89.3059 19.0834 89.5349 19.1432ZM73.4297 19.2226C74.002 19.368 74.3713 19.8007 74.4062 20.3666C74.4319 20.7841 74.3511 21.0117 74.0861 21.2686C73.9157 21.4339 73.8263 21.4889 73.6231 21.5534C73.3848 21.629 73.3069 21.6333 72.1817 21.6333H70.9921V20.3998V19.1663H72.1003C72.981 19.1663 73.2537 19.1779 73.4297 19.2226ZM14.1772 26.6757C14.2201 26.676 14.4851 26.8218 14.7662 26.9997C16.2776 27.9564 17.9519 28.5512 19.9207 28.8307C21.1519 29.0056 22.8698 29.0064 24.0867 28.8328C26.259 28.523 28.0132 27.8582 29.5024 26.7805C29.8504 26.5287 30.3735 26.6398 30.6121 27.0162C30.7645 27.2567 30.7864 27.5493 30.6696 27.7848C30.4299 28.2676 28.7126 29.2074 27.0352 29.7737C25.3768 30.3336 23.0115 30.6345 21.1323 30.5247C18.4435 30.3675 16.1614 29.7145 14.2677 28.5602C13.3962 28.029 13.2252 27.848 13.2252 27.4565C13.2252 27.2261 13.2861 27.0649 13.4273 26.9214C13.5854 26.7607 13.8829 26.6305 14.0249 26.6598C14.0659 26.6683 14.1344 26.6754 14.1772 26.6757Z" fill="#2D2D2D"/>
</svg>
