<svg width="89" height="44" viewBox="0 0 89 44" fill="none" xmlns="http://www.w3.org/2000/svg">
<path fill-rule="evenodd" clip-rule="evenodd" d="M77.5245 10.4615C76.95 10.6121 73.7898 11.4368 70.502 12.2942C67.2141 13.1516 63.6361 14.0851 62.5508 14.3687C61.4655 14.6523 58.4881 15.4291 55.9345 16.0951C42.0803 19.7081 30.2239 22.8022 28.7148 23.1983C26.6635 23.7368 25.8258 23.8562 24.478 23.802C22.39 23.7181 20.6881 23.0829 19.4659 21.9312C18.1795 20.7192 17.5913 19.1354 17.6766 17.1135C17.7421 15.5608 18.1758 13.9645 19.029 12.1356C19.2314 11.7016 19.3911 11.3412 19.3839 11.3346C19.3766 11.328 19.0512 11.6981 18.6607 12.1571C14.1269 17.4857 11.4412 22.1725 10.8414 25.8026C10.7107 26.5931 10.7233 27.8833 10.8684 28.5778C11.1697 30.0192 11.9507 31.1113 13.3935 32.1082C16.3239 34.1327 19.9137 34.3512 24.7456 32.7991C26.6146 32.1987 28.8994 31.2897 37.3914 27.7679C38.5565 27.2847 40.6589 26.4135 42.0635 25.8318C43.468 25.2501 44.7869 24.7025 44.9944 24.615C45.2018 24.5274 46.9778 23.7877 48.9409 22.9711C54.0069 20.8638 63.5768 16.8732 74.3905 12.3588C76.7526 11.3727 78.7346 10.5192 78.7949 10.4622C78.9316 10.3329 78.8797 10.1778 78.7016 10.1835C78.6288 10.1858 78.0991 10.3109 77.5245 10.4615Z" fill="#2D2D2D"/>
</svg>
